<svg width="14" height="8" viewBox="0 0 14 8" fill="none" xmlns="http://www.w3.org/2000/svg">
<path d="M6.89891 7.99328C6.74368 7.96934 6.59946 7.89387 6.48671 7.77756L0.26503 1.40542C0.187295 1.33541 0.123788 1.24918 0.0784078 1.15205C0.0330277 1.05491 0.00673106 0.948918 0.00113188 0.840551C-0.00446729 0.732184 0.0107489 0.623727 0.0458469 0.521859C0.0809448 0.419992 0.135184 0.326853 0.205237 0.248154C0.275289 0.169454 0.359676 0.106863 0.45322 0.0642085C0.546763 0.0215535 0.647491 -0.000268936 0.74922 0.000100613C0.85095 0.000470638 0.951535 0.0230136 1.0448 0.0663476C1.13807 0.109681 1.22206 0.172901 1.29161 0.252108L7 6.10155L12.7084 0.252108C12.7779 0.1729 12.8619 0.109682 12.9552 0.0663476C13.0485 0.0230131 13.149 0.000470638 13.2508 0.000100613C13.3525 -0.000268936 13.4532 0.0215535 13.5468 0.0642085C13.6403 0.106863 13.7247 0.169454 13.7948 0.248154C13.8648 0.326854 13.9191 0.419991 13.9542 0.521859C13.9893 0.623727 14.0045 0.732183 13.9989 0.840551C13.9933 0.948918 13.967 1.05491 13.9216 1.15205C13.8762 1.24918 13.8127 1.33541 13.735 1.40542L7.51329 7.77756C7.43259 7.86036 7.33548 7.92272 7.22913 7.96006C7.12278 7.9974 7.00992 8.00877 6.89891 7.99328Z" fill="#F8F8F8"/>
</svg>
