<svg width="200" height="52" viewBox="0 0 200 52" fill="none" xmlns="http://www.w3.org/2000/svg">
<path d="M52.9883 17.9373H57.8753C58.7359 17.9373 59.4428 17.7324 59.9961 17.3225C60.5493 16.9127 60.8259 16.2468 60.8259 15.3247C60.8259 14.8124 60.7337 14.3924 60.5493 14.0645C60.3649 13.7367 60.119 13.4806 59.8117 13.2961C59.5043 13.1117 59.1457 12.9888 58.7359 12.9273C58.3466 12.8454 57.9368 12.8044 57.5065 12.8044H52.9883V17.9373ZM48.1628 9.0546H58.49C59.535 9.0546 60.4878 9.14681 61.3484 9.33122C62.2091 9.51564 62.9467 9.82299 63.5614 10.2533C64.1761 10.6631 64.6474 11.2164 64.9753 11.913C65.3236 12.6097 65.4978 13.4703 65.4978 14.4948C65.4978 15.6013 65.2417 16.5234 64.7294 17.2611C64.2376 17.9987 63.5 18.6032 62.5164 19.0745C63.8688 19.4638 64.8728 20.1502 65.5285 21.1338C66.2047 22.0968 66.5428 23.2648 66.5428 24.6377C66.5428 25.7442 66.3277 26.7072 65.8974 27.5268C65.4671 28.326 64.8831 28.9817 64.1454 29.4939C63.4282 30.0062 62.5984 30.3853 61.6558 30.6312C60.7337 30.8771 59.7809 31 58.7974 31H48.1628V9.0546ZM52.9883 27.2502H58.1519C58.6232 27.2502 59.074 27.2092 59.5043 27.1273C59.9346 27.0248 60.3137 26.8711 60.6415 26.6662C60.9694 26.4408 61.2255 26.1437 61.4099 25.7749C61.6148 25.4061 61.7173 24.9348 61.7173 24.3611C61.7173 23.2341 61.3997 22.4349 60.7645 21.9637C60.1293 21.4719 59.2891 21.226 58.2441 21.226H52.9883V27.2502ZM73.2156 23.0701C73.2156 23.7054 73.2771 24.3303 73.4 24.945C73.523 25.5393 73.7279 26.0823 74.0147 26.574C74.3221 27.0453 74.7217 27.4244 75.2134 27.7113C75.7052 27.9981 76.3199 28.1416 77.0576 28.1416C77.7953 28.1416 78.41 27.9981 78.9017 27.7113C79.414 27.4244 79.8136 27.0453 80.1004 26.574C80.4078 26.0823 80.623 25.5393 80.7459 24.945C80.8688 24.3303 80.9303 23.7054 80.9303 23.0701C80.9303 22.4349 80.8688 21.81 80.7459 21.1953C80.623 20.5805 80.4078 20.0375 80.1004 19.5663C79.8136 19.095 79.414 18.7159 78.9017 18.429C78.41 18.1217 77.7953 17.968 77.0576 17.968C76.3199 17.968 75.7052 18.1217 75.2134 18.429C74.7217 18.7159 74.3221 19.095 74.0147 19.5663C73.7279 20.0375 73.523 20.5805 73.4 21.1953C73.2771 21.81 73.2156 22.4349 73.2156 23.0701ZM68.8511 23.0701C68.8511 21.7997 69.0458 20.6523 69.4351 19.6277C69.8244 18.5827 70.3777 17.7016 71.0948 16.9844C71.812 16.2468 72.6726 15.6833 73.6766 15.294C74.6807 14.8842 75.8077 14.6793 77.0576 14.6793C78.3075 14.6793 79.4345 14.8842 80.4385 15.294C81.4631 15.6833 82.3339 16.2468 83.0511 16.9844C83.7683 17.7016 84.3215 18.5827 84.7108 19.6277C85.1001 20.6523 85.2948 21.7997 85.2948 23.0701C85.2948 24.3406 85.1001 25.488 84.7108 26.5126C84.3215 27.5371 83.7683 28.4182 83.0511 29.1558C82.3339 29.873 81.4631 30.4263 80.4385 30.8156C79.4345 31.2049 78.3075 31.3996 77.0576 31.3996C75.8077 31.3996 74.6807 31.2049 73.6766 30.8156C72.6726 30.4263 71.812 29.873 71.0948 29.1558C70.3777 28.4182 69.8244 27.5371 69.4351 26.5126C69.0458 25.488 68.8511 24.3406 68.8511 23.0701ZM88.2555 9.0546H92.62V31H88.2555V9.0546ZM96.1796 9.0546H100.544V31H96.1796V9.0546ZM111.818 32.9671C111.347 34.258 110.691 35.1801 109.851 35.7333C109.011 36.2866 107.843 36.5632 106.347 36.5632C105.897 36.5632 105.446 36.5427 104.995 36.5017C104.565 36.4812 104.124 36.4505 103.673 36.4095V32.8134C104.083 32.8544 104.503 32.8954 104.934 32.9364C105.364 32.9773 105.794 32.9876 106.224 32.9671C106.798 32.9056 107.218 32.6802 107.485 32.2909C107.772 31.9016 107.915 31.4713 107.915 31C107.915 30.6517 107.853 30.3238 107.731 30.0165L102.167 15.1096H106.808L110.405 25.9901H110.466L113.939 15.1096H118.457L111.818 32.9671ZM138.084 31H133.596L130.769 20.3347H130.707L128.003 31H123.484L118.444 15.1096H123.054L125.974 25.8978H126.035L128.679 15.1096H132.92L135.625 25.8671H135.686L138.606 15.1096H143.094L138.084 31ZM148.825 23.0701C148.825 23.7054 148.886 24.3303 149.009 24.945C149.132 25.5393 149.337 26.0823 149.624 26.574C149.931 27.0453 150.331 27.4244 150.822 27.7113C151.314 27.9981 151.929 28.1416 152.667 28.1416C153.404 28.1416 154.019 27.9981 154.511 27.7113C155.023 27.4244 155.423 27.0453 155.709 26.574C156.017 26.0823 156.232 25.5393 156.355 24.945C156.478 24.3303 156.539 23.7054 156.539 23.0701C156.539 22.4349 156.478 21.81 156.355 21.1953C156.232 20.5805 156.017 20.0375 155.709 19.5663C155.423 19.095 155.023 18.7159 154.511 18.429C154.019 18.1217 153.404 17.968 152.667 17.968C151.929 17.968 151.314 18.1217 150.822 18.429C150.331 18.7159 149.931 19.095 149.624 19.5663C149.337 20.0375 149.132 20.5805 149.009 21.1953C148.886 21.81 148.825 22.4349 148.825 23.0701ZM144.46 23.0701C144.46 21.7997 144.655 20.6523 145.044 19.6277C145.433 18.5827 145.987 17.7016 146.704 16.9844C147.421 16.2468 148.282 15.6833 149.286 15.294C150.29 14.8842 151.417 14.6793 152.667 14.6793C153.917 14.6793 155.044 14.8842 156.048 15.294C157.072 15.6833 157.943 16.2468 158.66 16.9844C159.377 17.7016 159.931 18.5827 160.32 19.6277C160.709 20.6523 160.904 21.7997 160.904 23.0701C160.904 24.3406 160.709 25.488 160.32 26.5126C159.931 27.5371 159.377 28.4182 158.66 29.1558C157.943 29.873 157.072 30.4263 156.048 30.8156C155.044 31.2049 153.917 31.3996 152.667 31.3996C151.417 31.3996 150.29 31.2049 149.286 30.8156C148.282 30.4263 147.421 29.873 146.704 29.1558C145.987 28.4182 145.433 27.5371 145.044 26.5126C144.655 25.488 144.46 24.3406 144.46 23.0701ZM167.614 23.0701C167.614 23.7054 167.676 24.3303 167.799 24.945C167.922 25.5393 168.127 26.0823 168.413 26.574C168.721 27.0453 169.12 27.4244 169.612 27.7113C170.104 27.9981 170.719 28.1416 171.456 28.1416C172.194 28.1416 172.809 27.9981 173.3 27.7113C173.813 27.4244 174.212 27.0453 174.499 26.574C174.806 26.0823 175.022 25.5393 175.145 24.945C175.268 24.3303 175.329 23.7054 175.329 23.0701C175.329 22.4349 175.268 21.81 175.145 21.1953C175.022 20.5805 174.806 20.0375 174.499 19.5663C174.212 19.095 173.813 18.7159 173.3 18.429C172.809 18.1217 172.194 17.968 171.456 17.968C170.719 17.968 170.104 18.1217 169.612 18.429C169.12 18.7159 168.721 19.095 168.413 19.5663C168.127 20.0375 167.922 20.5805 167.799 21.1953C167.676 21.81 167.614 22.4349 167.614 23.0701ZM163.25 23.0701C163.25 21.7997 163.444 20.6523 163.834 19.6277C164.223 18.5827 164.776 17.7016 165.494 16.9844C166.211 16.2468 167.071 15.6833 168.075 15.294C169.079 14.8842 170.206 14.6793 171.456 14.6793C172.706 14.6793 173.833 14.8842 174.837 15.294C175.862 15.6833 176.733 16.2468 177.45 16.9844C178.167 17.7016 178.72 18.5827 179.11 19.6277C179.499 20.6523 179.693 21.7997 179.693 23.0701C179.693 24.3406 179.499 25.488 179.11 26.5126C178.72 27.5371 178.167 28.4182 177.45 29.1558C176.733 29.873 175.862 30.4263 174.837 30.8156C173.833 31.2049 172.706 31.3996 171.456 31.3996C170.206 31.3996 169.079 31.2049 168.075 30.8156C167.071 30.4263 166.211 29.873 165.494 29.1558C164.776 28.4182 164.223 27.5371 163.834 26.5126C163.444 25.488 163.25 24.3406 163.25 23.0701ZM193.811 23.0087C193.811 22.353 193.75 21.728 193.627 21.1338C193.504 20.5191 193.289 19.9863 192.981 19.5355C192.695 19.0642 192.316 18.6852 191.844 18.3983C191.373 18.1114 190.779 17.968 190.062 17.968C189.344 17.968 188.74 18.1114 188.248 18.3983C187.756 18.6852 187.357 19.0642 187.049 19.5355C186.763 20.0068 186.547 20.5498 186.404 21.1645C186.281 21.7588 186.22 22.3837 186.22 23.0394C186.22 23.6541 186.291 24.2688 186.435 24.8836C186.578 25.4983 186.804 26.0515 187.111 26.5433C187.439 27.0146 187.838 27.4039 188.31 27.7113C188.801 27.9981 189.385 28.1416 190.062 28.1416C190.779 28.1416 191.373 27.9981 191.844 27.7113C192.336 27.4244 192.725 27.0453 193.012 26.574C193.299 26.0823 193.504 25.529 193.627 24.9143C193.75 24.2996 193.811 23.6644 193.811 23.0087ZM193.873 28.9714H193.811C193.299 29.832 192.623 30.457 191.783 30.8463C190.963 31.2152 190.031 31.3996 188.986 31.3996C187.797 31.3996 186.752 31.1742 185.851 30.7234C184.949 30.2521 184.201 29.6271 183.607 28.8485C183.033 28.0494 182.593 27.1375 182.285 26.113C181.999 25.0885 181.855 24.023 181.855 22.9165C181.855 21.851 181.999 20.8264 182.285 19.8429C182.593 18.8388 183.033 17.9578 183.607 17.1996C184.201 16.4414 184.939 15.837 185.82 15.3862C186.701 14.9149 187.726 14.6793 188.894 14.6793C189.836 14.6793 190.728 14.8842 191.568 15.294C192.428 15.6833 193.104 16.2673 193.596 17.0459H193.658V9.0546H198.022V31H193.873V28.9714Z" fill="white"/>
<path d="M47.9722 39.8005H49.1525L48.3533 43.5748H52.9514L53.7383 39.8005H54.9062L53.0621 48.5786H51.8941L52.7424 44.5584H48.1443L47.296 48.5786H46.1281L47.9722 39.8005ZM55.5662 44.1404C55.6153 43.7879 55.7219 43.4847 55.8858 43.2306C56.0579 42.9683 56.2669 42.7511 56.5128 42.579C56.7587 42.4069 57.0374 42.2798 57.3489 42.1978C57.6603 42.1159 57.9841 42.0749 58.3201 42.0749C58.6316 42.0749 58.9266 42.0995 59.2053 42.1487C59.484 42.1978 59.7299 42.2839 59.943 42.4069C60.1561 42.5298 60.3241 42.6978 60.447 42.9109C60.5782 43.1158 60.6437 43.3781 60.6437 43.6978C60.6437 43.8781 60.6191 44.0748 60.57 44.2879C60.529 44.4928 60.488 44.6813 60.447 44.8534L60.0413 46.5869C60.0167 46.7181 59.9798 46.8656 59.9307 47.0295C59.8897 47.1935 59.8692 47.3492 59.8692 47.4967C59.8692 47.6442 59.8979 47.7467 59.9553 47.8041C60.0126 47.8614 60.0864 47.8901 60.1766 47.8901C60.2257 47.8901 60.279 47.8819 60.3364 47.8655C60.4019 47.841 60.4593 47.8205 60.5085 47.8041L60.3487 48.5786C60.2667 48.6114 60.1602 48.6401 60.029 48.6647C59.9061 48.6975 59.7995 48.7139 59.7094 48.7139C59.4225 48.7139 59.2053 48.636 59.0578 48.4803C58.9102 48.3245 58.8529 48.1073 58.8856 47.8287L58.8611 47.8041C58.6398 48.0991 58.3652 48.3245 58.0373 48.4803C57.7095 48.636 57.2751 48.7139 56.7341 48.7139C56.4637 48.7139 56.2096 48.6811 55.9719 48.6155C55.7424 48.5581 55.5416 48.4598 55.3695 48.3204C55.1973 48.1729 55.058 47.9885 54.9515 47.7672C54.8531 47.5377 54.8039 47.259 54.8039 46.9312C54.8039 46.464 54.9023 46.0993 55.099 45.837C55.3039 45.5747 55.5621 45.378 55.8735 45.2468C56.185 45.1075 56.5292 45.0133 56.9063 44.9641C57.2833 44.9149 57.648 44.8739 58.0005 44.8411C58.2791 44.8165 58.5168 44.792 58.7135 44.7674C58.9184 44.7346 59.0865 44.6854 59.2176 44.6198C59.3487 44.5543 59.443 44.46 59.5004 44.3371C59.5659 44.2141 59.5987 44.0461 59.5987 43.833C59.5987 43.6609 59.5577 43.5215 59.4758 43.415C59.3938 43.3084 59.2914 43.2265 59.1684 43.1691C59.0455 43.1035 58.9061 43.0585 58.7504 43.0339C58.6029 43.0093 58.4594 42.997 58.3201 42.997C58.1234 42.997 57.9267 43.0175 57.73 43.0585C57.5415 43.0994 57.3693 43.1691 57.2136 43.2675C57.0579 43.3576 56.9267 43.4765 56.8202 43.624C56.7136 43.7633 56.644 43.9354 56.6112 44.1404H55.5662ZM55.8366 46.9189C55.8366 47.2139 55.9514 47.4352 56.1809 47.5828C56.4186 47.7303 56.685 47.8041 56.98 47.8041C57.8078 47.8041 58.4021 47.5254 58.7627 46.9681C58.9348 46.7304 59.0496 46.4722 59.1069 46.1935C59.1725 45.9148 59.2422 45.628 59.3159 45.3329H59.2914C59.1438 45.4395 58.9553 45.5173 58.7258 45.5665C58.5045 45.6075 58.2668 45.6403 58.0127 45.6649C57.7587 45.6894 57.5005 45.7222 57.2382 45.7632C56.9841 45.796 56.7546 45.8534 56.5497 45.9353C56.3448 46.0173 56.1768 46.1361 56.0457 46.2919C55.9145 46.4394 55.8448 46.6484 55.8366 46.9189ZM63.8471 41.0791H62.7898L63.0602 39.8005H64.1176L63.8471 41.0791ZM62.5562 42.2224H63.6012L62.2734 48.5786H61.2407L62.5562 42.2224ZM65.2816 42.2224H66.2651L65.9578 43.5871H65.9824C66.2282 43.1527 66.5397 42.7921 66.9167 42.5052C67.302 42.2183 67.7609 42.0749 68.2937 42.0749C68.3593 42.0749 68.4207 42.0708 68.4781 42.0626C68.5355 42.0544 68.597 42.0585 68.6625 42.0749L68.4166 43.1937C68.3839 43.1855 68.3306 43.1814 68.2568 43.1814H68.1093C67.9781 43.1814 67.8716 43.1855 67.7896 43.1937C67.7077 43.1937 67.6052 43.2101 67.4823 43.2429C67.1954 43.3166 66.9372 43.4437 66.7077 43.624C66.4864 43.8043 66.2938 44.0215 66.1299 44.2756C65.9906 44.4805 65.8799 44.7223 65.7979 45.001C65.716 45.2714 65.6504 45.5255 65.6012 45.7632L64.9988 48.5786H63.9661L65.2816 42.2224ZM74.5556 41.8044C74.5556 42.0831 74.6129 42.3372 74.7277 42.5667C74.8424 42.788 74.9695 43.0134 75.1088 43.2429C75.2645 43.1527 75.4326 43.0544 75.6129 42.9478C75.7932 42.8413 75.9612 42.7224 76.1169 42.5913C76.2727 42.4601 76.3997 42.3167 76.4981 42.161C76.6046 41.997 76.6579 41.8208 76.6579 41.6323C76.6579 41.3536 76.5636 41.1323 76.3751 40.9684C76.1866 40.8045 75.9571 40.7225 75.6866 40.7225C75.367 40.7225 75.0965 40.8168 74.8752 41.0053C74.6621 41.1938 74.5556 41.4602 74.5556 41.8044ZM76.7439 47.6688C76.3997 47.9885 76.0227 48.2426 75.6129 48.4311C75.2113 48.6196 74.7523 48.7139 74.2359 48.7139C73.8917 48.7139 73.572 48.6647 73.2769 48.5663C72.9819 48.4598 72.7237 48.3122 72.5024 48.1237C72.2811 47.927 72.1049 47.6893 71.9737 47.4107C71.8508 47.132 71.7893 46.8123 71.7893 46.4517C71.7893 46.0829 71.8631 45.7591 72.0106 45.4804C72.1582 45.2018 72.3467 44.9559 72.5762 44.7428C72.8139 44.5215 73.0761 44.3289 73.363 44.1649C73.6581 43.9928 73.949 43.833 74.2359 43.6855C74.0638 43.415 73.8999 43.124 73.7441 42.8126C73.5884 42.4929 73.5105 42.1364 73.5105 41.743C73.5105 41.4479 73.5638 41.1815 73.6704 40.9438C73.7851 40.7061 73.9367 40.5053 74.1253 40.3414C74.322 40.1693 74.5515 40.0381 74.8137 39.948C75.0842 39.8496 75.3793 39.8005 75.6989 39.8005C75.953 39.8005 76.1989 39.8373 76.4366 39.9111C76.6825 39.9767 76.8956 40.0791 77.0759 40.2185C77.2644 40.3578 77.416 40.534 77.5308 40.7471C77.6455 40.952 77.7029 41.1938 77.7029 41.4725C77.7029 41.7757 77.6332 42.0544 77.4939 42.3085C77.3628 42.5544 77.1906 42.7798 76.9775 42.9847C76.7726 43.1814 76.5431 43.3617 76.2891 43.5256C76.035 43.6814 75.785 43.8248 75.5391 43.9559L76.9161 46.2181C77.0882 45.9804 77.248 45.7017 77.3955 45.3821C77.5513 45.0542 77.6496 44.7387 77.6906 44.4354H78.6987C78.5676 45.0174 78.3955 45.5009 78.1824 45.8862C77.9775 46.2714 77.7275 46.6361 77.4324 46.9803L78.4774 48.5786H77.2849L76.7439 47.6688ZM74.6908 44.4231C74.4859 44.5297 74.2728 44.6485 74.0515 44.7797C73.8302 44.9108 73.6294 45.0583 73.4491 45.2223C73.2687 45.3862 73.1212 45.5747 73.0065 45.7878C72.8917 45.9927 72.8343 46.2304 72.8343 46.5009C72.8343 46.6976 72.8753 46.8779 72.9573 47.0418C73.0393 47.1975 73.1499 47.3328 73.2892 47.4475C73.4368 47.5623 73.6007 47.6524 73.781 47.718C73.9613 47.7754 74.1498 47.8041 74.3466 47.8041C74.74 47.8041 75.076 47.7344 75.3547 47.5951C75.6416 47.4475 75.9407 47.2426 76.2522 46.9803L74.6908 44.4231ZM89.0777 42.3946C89.0859 42.0503 89.0408 41.7634 88.9424 41.534C88.8523 41.2963 88.717 41.1077 88.5367 40.9684C88.3646 40.8209 88.1515 40.7184 87.8974 40.6611C87.6433 40.6037 87.3647 40.575 87.0614 40.575C86.8483 40.575 86.6229 40.6037 86.3852 40.6611C86.1475 40.7102 85.9262 40.7922 85.7213 40.9069C85.5246 41.0217 85.3607 41.1692 85.2295 41.3495C85.0984 41.5299 85.0328 41.7512 85.0328 42.0134C85.0328 42.2265 85.0697 42.411 85.1435 42.5667C85.2172 42.7142 85.3156 42.8454 85.4385 42.9601C85.5697 43.0666 85.7213 43.1568 85.8934 43.2306C86.0738 43.3043 86.2623 43.3699 86.459 43.4273L87.6392 43.7469C87.9097 43.8207 88.172 43.915 88.4261 44.0297C88.6802 44.1363 88.9056 44.2797 89.1023 44.46C89.299 44.6321 89.4547 44.8534 89.5694 45.1239C89.6924 45.3944 89.7539 45.7263 89.7539 46.1197C89.7539 46.5787 89.6473 46.9763 89.4342 47.3123C89.2293 47.6401 88.9629 47.9147 88.6351 48.136C88.3072 48.3491 87.9384 48.5089 87.5286 48.6155C87.127 48.722 86.7295 48.7753 86.336 48.7753C85.8115 48.7753 85.3279 48.7139 84.8853 48.5909C84.4427 48.4762 84.0657 48.2958 83.7542 48.05C83.451 47.8041 83.2174 47.4885 83.0534 47.1033C82.8977 46.7099 82.8403 46.2427 82.8813 45.7017H84.0493C84.0329 46.0952 84.078 46.4271 84.1845 46.6976C84.2911 46.9681 84.4468 47.1853 84.6517 47.3492C84.8648 47.5131 85.1189 47.6319 85.414 47.7057C85.709 47.7713 86.0328 47.8041 86.3852 47.8041C86.6557 47.8041 86.9221 47.7713 87.1843 47.7057C87.4548 47.6401 87.6925 47.5418 87.8974 47.4107C88.1023 47.2713 88.2662 47.0951 88.3892 46.882C88.5203 46.6689 88.5859 46.4148 88.5859 46.1197C88.5859 45.8984 88.5449 45.7099 88.463 45.5542C88.381 45.3903 88.2662 45.255 88.1187 45.1485C87.9794 45.0337 87.8155 44.9395 87.6269 44.8657C87.4384 44.792 87.2376 44.7264 87.0245 44.669L85.832 44.3494C85.5697 44.2756 85.3197 44.1813 85.082 44.0666C84.8443 43.9436 84.6353 43.7961 84.455 43.624C84.2747 43.4437 84.1312 43.2347 84.0247 42.997C83.9181 42.7511 83.8649 42.4642 83.8649 42.1364C83.8649 41.7102 83.9591 41.3413 84.1476 41.0299C84.3362 40.7102 84.5779 40.4439 84.873 40.2308C85.1763 40.0177 85.5164 39.8578 85.8934 39.7513C86.2787 39.6447 86.668 39.5914 87.0614 39.5914C87.4958 39.5914 87.9056 39.6488 88.2908 39.7636C88.6843 39.8701 89.0285 40.0381 89.3236 40.2676C89.6186 40.4889 89.8481 40.7758 90.012 41.1282C90.1842 41.4807 90.262 41.9028 90.2456 42.3946H89.0777ZM92.464 39.8005H93.4967L92.4025 44.9641L92.4271 44.9887L95.6236 42.2224H96.9883L94.2221 44.5707L95.7958 48.5786H94.6278L93.3861 45.1977L92.132 46.3165L91.6526 48.5786H90.6198L92.464 39.8005ZM99.1453 41.0791H98.088L98.3585 39.8005H99.4158L99.1453 41.0791ZM97.8544 42.2224H98.8994L97.5716 48.5786H96.5389L97.8544 42.2224ZM100.592 42.2224H101.6L101.404 43.1814H101.428C101.69 42.8126 102.022 42.538 102.424 42.3577C102.826 42.1692 103.248 42.0749 103.69 42.0749C104.289 42.0749 104.731 42.206 105.018 42.4683C105.313 42.7306 105.461 43.1445 105.461 43.7101C105.461 43.8494 105.444 44.0297 105.411 44.251C105.379 44.4723 105.334 44.7059 105.276 44.9518L104.502 48.5786H103.457L104.268 44.8657C104.276 44.8002 104.289 44.7264 104.305 44.6444C104.321 44.5543 104.338 44.4641 104.354 44.3739C104.371 44.2756 104.383 44.1854 104.391 44.1035C104.407 44.0133 104.416 43.9395 104.416 43.8822C104.416 43.5789 104.309 43.3576 104.096 43.2183C103.883 43.0707 103.621 42.997 103.309 42.997C103.022 42.997 102.735 43.0666 102.449 43.206C102.17 43.3453 101.932 43.5215 101.735 43.7346C101.547 43.8986 101.399 44.0994 101.293 44.3371C101.186 44.5666 101.1 44.8083 101.035 45.0624L100.297 48.5786H99.2643L100.592 42.2224ZM115.948 42.3946C115.956 42.0503 115.911 41.7634 115.812 41.534C115.722 41.2963 115.587 41.1077 115.407 40.9684C115.234 40.8209 115.021 40.7184 114.767 40.6611C114.513 40.6037 114.235 40.575 113.931 40.575C113.718 40.575 113.493 40.6037 113.255 40.6611C113.017 40.7102 112.796 40.7922 112.591 40.9069C112.394 41.0217 112.231 41.1692 112.099 41.3495C111.968 41.5299 111.903 41.7512 111.903 42.0134C111.903 42.2265 111.94 42.411 112.013 42.5667C112.087 42.7142 112.185 42.8454 112.308 42.9601C112.44 43.0666 112.591 43.1568 112.763 43.2306C112.944 43.3043 113.132 43.3699 113.329 43.4273L114.509 43.7469C114.78 43.8207 115.042 43.915 115.296 44.0297C115.55 44.1363 115.775 44.2797 115.972 44.46C116.169 44.6321 116.325 44.8534 116.439 45.1239C116.562 45.3944 116.624 45.7263 116.624 46.1197C116.624 46.5787 116.517 46.9763 116.304 47.3123C116.099 47.6401 115.833 47.9147 115.505 48.136C115.177 48.3491 114.808 48.5089 114.398 48.6155C113.997 48.722 113.599 48.7753 113.206 48.7753C112.681 48.7753 112.198 48.7139 111.755 48.5909C111.313 48.4762 110.936 48.2958 110.624 48.05C110.321 47.8041 110.087 47.4885 109.923 47.1033C109.768 46.7099 109.71 46.2427 109.751 45.7017H110.919C110.903 46.0952 110.948 46.4271 111.054 46.6976C111.161 46.9681 111.317 47.1853 111.522 47.3492C111.735 47.5131 111.989 47.6319 112.284 47.7057C112.579 47.7713 112.903 47.8041 113.255 47.8041C113.526 47.8041 113.792 47.7713 114.054 47.7057C114.325 47.6401 114.562 47.5418 114.767 47.4107C114.972 47.2713 115.136 47.0951 115.259 46.882C115.39 46.6689 115.456 46.4148 115.456 46.1197C115.456 45.8984 115.415 45.7099 115.333 45.5542C115.251 45.3903 115.136 45.255 114.989 45.1485C114.849 45.0337 114.685 44.9395 114.497 44.8657C114.308 44.792 114.107 44.7264 113.894 44.669L112.702 44.3494C112.44 44.2756 112.19 44.1813 111.952 44.0666C111.714 43.9436 111.505 43.7961 111.325 43.624C111.145 43.4437 111.001 43.2347 110.895 42.997C110.788 42.7511 110.735 42.4642 110.735 42.1364C110.735 41.7102 110.829 41.3413 111.018 41.0299C111.206 40.7102 111.448 40.4439 111.743 40.2308C112.046 40.0177 112.386 39.8578 112.763 39.7513C113.149 39.6447 113.538 39.5914 113.931 39.5914C114.366 39.5914 114.775 39.6488 115.161 39.7636C115.554 39.8701 115.898 40.0381 116.193 40.2676C116.488 40.4889 116.718 40.7758 116.882 41.1282C117.054 41.4807 117.132 41.9028 117.115 42.3946H115.948ZM120.256 42.2224H121.522L121.326 43.1445H120.059L119.272 46.882C119.264 46.9558 119.256 47.0254 119.248 47.091C119.24 47.1566 119.236 47.2262 119.236 47.3C119.236 47.4639 119.297 47.5787 119.42 47.6442C119.551 47.7016 119.699 47.7303 119.863 47.7303C119.969 47.7303 120.072 47.7221 120.17 47.7057C120.268 47.6811 120.367 47.6524 120.465 47.6197L120.281 48.5786C120.158 48.595 120.035 48.6073 119.912 48.6155C119.789 48.6319 119.666 48.6401 119.543 48.6401C119.346 48.6401 119.162 48.6237 118.99 48.5909C118.817 48.5663 118.666 48.5171 118.535 48.4434C118.412 48.3614 118.309 48.2549 118.227 48.1237C118.154 47.9926 118.117 47.8246 118.117 47.6197C118.117 47.5295 118.121 47.4434 118.129 47.3615C118.145 47.2795 118.162 47.1894 118.178 47.091L119.014 43.1445H117.945L118.141 42.2224H119.211L119.604 40.3414H120.649L120.256 42.2224ZM126.47 48.5786H125.462L125.658 47.6197H125.634C125.372 47.9885 125.04 48.2631 124.638 48.4434C124.236 48.6237 123.814 48.7139 123.372 48.7139C122.773 48.7139 122.327 48.5868 122.032 48.3327C121.745 48.0704 121.601 47.6565 121.601 47.091C121.601 46.9517 121.618 46.7713 121.65 46.55C121.683 46.3287 121.728 46.0952 121.786 45.8493L122.56 42.2224H123.605L122.794 45.9353C122.777 45.9927 122.761 46.0665 122.745 46.1566C122.728 46.2468 122.712 46.341 122.695 46.4394C122.679 46.5296 122.667 46.6197 122.659 46.7099C122.65 46.7918 122.646 46.8615 122.646 46.9189C122.646 47.2221 122.753 47.4475 122.966 47.5951C123.179 47.7344 123.441 47.8041 123.753 47.8041C124.048 47.8041 124.318 47.7467 124.564 47.6319C124.818 47.5172 125.044 47.3656 125.24 47.1771C125.437 46.9803 125.601 46.7591 125.732 46.5132C125.872 46.2591 125.97 46.0009 126.027 45.7386L126.765 42.2224H127.81L126.47 48.5786ZM133.842 48.5786H132.859L133.08 47.6688H133.056C132.744 48.0786 132.42 48.3573 132.084 48.5048C131.756 48.6442 131.379 48.7139 130.953 48.7139C130.552 48.7139 130.195 48.6524 129.884 48.5294C129.572 48.3983 129.31 48.2221 129.097 48.0008C128.884 47.7713 128.724 47.4967 128.617 47.1771C128.511 46.8574 128.457 46.505 128.457 46.1197C128.457 45.6362 128.535 45.1567 128.691 44.6813C128.855 44.1977 129.084 43.7633 129.379 43.3781C129.683 42.9929 130.052 42.6814 130.486 42.4437C130.929 42.1978 131.429 42.0749 131.986 42.0749C132.183 42.0749 132.383 42.0954 132.588 42.1364C132.793 42.1692 132.986 42.2306 133.166 42.3208C133.355 42.4028 133.519 42.5175 133.658 42.665C133.797 42.8044 133.9 42.9806 133.965 43.1937H133.99L134.666 39.8005H135.699L133.842 48.5786ZM129.502 46.1197C129.502 46.6361 129.629 47.0459 129.884 47.3492C130.146 47.6524 130.564 47.8041 131.138 47.8041C131.531 47.8041 131.883 47.7016 132.195 47.4967C132.506 47.2918 132.765 47.0336 132.969 46.7222C133.183 46.4107 133.342 46.0706 133.449 45.7017C133.564 45.3247 133.621 44.9723 133.621 44.6444C133.621 44.169 133.482 43.7756 133.203 43.4642C132.933 43.1527 132.539 42.997 132.023 42.997C131.605 42.997 131.24 43.0953 130.929 43.292C130.617 43.4806 130.355 43.7264 130.142 44.0297C129.929 44.333 129.769 44.669 129.662 45.0378C129.556 45.4067 129.502 45.7673 129.502 46.1197ZM138.093 41.0791H137.036L137.307 39.8005H138.364L138.093 41.0791ZM136.802 42.2224H137.848L136.52 48.5786H135.487L136.802 42.2224ZM138.471 46.0706C138.471 45.5542 138.548 45.0542 138.704 44.5707C138.868 44.0871 139.102 43.6609 139.405 43.292C139.716 42.9232 140.089 42.6282 140.524 42.4069C140.966 42.1856 141.466 42.0749 142.024 42.0749C142.884 42.0749 143.54 42.3003 143.991 42.7511C144.442 43.1937 144.667 43.8453 144.667 44.7059C144.667 45.2223 144.589 45.7222 144.433 46.2058C144.278 46.6894 144.048 47.1197 143.745 47.4967C143.442 47.8655 143.073 48.1606 142.638 48.3819C142.204 48.6032 141.708 48.7139 141.151 48.7139C140.733 48.7139 140.356 48.6483 140.02 48.5171C139.692 48.386 139.413 48.2057 139.184 47.9762C138.954 47.7385 138.778 47.4598 138.655 47.1402C138.532 46.8123 138.471 46.4558 138.471 46.0706ZM139.516 46.0583C139.516 46.5828 139.663 47.0049 139.958 47.3246C140.253 47.6442 140.688 47.8041 141.261 47.8041C141.647 47.8041 141.983 47.7057 142.27 47.509C142.565 47.3123 142.81 47.0664 143.007 46.7713C143.212 46.4681 143.364 46.1402 143.462 45.7878C143.569 45.4354 143.622 45.1034 143.622 44.792C143.622 44.5461 143.589 44.3125 143.524 44.0912C143.458 43.8699 143.356 43.6814 143.216 43.5256C143.077 43.3617 142.901 43.2347 142.688 43.1445C142.483 43.0462 142.237 42.997 141.95 42.997C141.548 42.997 141.196 43.0953 140.893 43.292C140.589 43.4888 140.335 43.7387 140.13 44.042C139.925 44.3371 139.77 44.6649 139.663 45.0255C139.565 45.3862 139.516 45.7304 139.516 46.0583Z" fill="white"/>
<path d="M19.532 35.563C18.2896 35.6355 17.1934 36.1436 16.2433 36.9419L14.0509 11.1046C14.0509 11.032 14.0509 11.032 14.0509 10.9594V10.8869C14.0509 10.8143 14.0509 10.8143 13.9778 10.7417C13.9778 10.7417 13.9778 10.6691 13.9047 10.6691C13.9047 10.5966 13.8316 10.5965 13.8316 10.524C13.8316 10.524 13.8316 10.4514 13.7585 10.4514C13.7585 10.3788 13.6855 10.3788 13.6855 10.3062C13.6855 10.3062 13.6855 10.2337 13.6124 10.2337C13.5393 10.2337 13.5393 10.1611 13.4662 10.1611C13.4662 10.1611 13.3931 10.1611 13.3931 10.0885C13.3201 10.0885 13.3201 10.0885 13.247 10.0159C13.247 10.0159 13.1739 10.0159 13.1739 9.94336H13.1008C13.0277 9.94336 13.0277 9.94336 12.9547 9.94336H12.8816H12.8085C12.7354 9.94336 12.7354 9.94336 12.6623 9.94336H12.5892C12.5162 9.94336 12.5162 9.94336 12.4431 10.0159C12.4431 10.0159 12.37 10.0159 12.37 10.0885L12.2969 10.1611L12.2238 10.2337L12.1508 10.3062L12.0777 10.3788L12.0046 10.4514L11.9315 10.524C11.9315 10.524 11.9315 10.5965 11.8584 10.5965C11.8584 10.6691 11.7853 10.6691 11.7853 10.7417V10.8143C11.7853 10.8869 11.7853 10.8869 11.7853 10.9594L9.59289 36.7968C8.71591 36.071 7.54661 35.563 6.30422 35.4178C3.08862 35.1275 0.311516 37.5225 0.0191891 40.7159C-0.200056 43.4012 1.48082 45.8689 3.9656 46.6672C3.60019 47.5381 2.94246 47.901 2.94246 47.9736C2.3578 48.3365 2.13856 49.0622 2.50397 49.6428C2.72321 50.0057 3.1617 50.296 3.60019 50.296C3.81944 50.296 4.03868 50.2235 4.18485 50.1509C4.25793 50.0783 5.93881 49.1348 6.52346 47.0301C9.22748 46.7398 11.4199 44.5625 11.6392 41.8046L13.0277 25.6925L14.4163 41.8046C14.7086 44.8528 17.1934 47.1027 20.1897 47.1027C20.3359 47.1027 20.5551 47.1027 20.7013 47.1027C22.236 46.9575 23.6246 46.2317 24.6477 45.0705C25.6709 43.9093 26.1094 42.3852 26.0363 40.8611C25.5247 37.6677 22.7476 35.2726 19.532 35.563Z" fill="url(#paint0_linear_7_863)"/>
<path d="M24.5012 30.6277C23.8434 30.6277 23.2588 31.2084 23.2588 31.8615C23.2588 32.5147 23.8434 33.0953 24.5012 33.0953H32.1748V48.1913C32.1748 48.8445 32.7594 49.4251 33.4171 49.4251C34.0749 49.4251 34.6595 48.8445 34.6595 48.1913V13.5722C34.6595 11.1046 32.6132 9.14502 30.2016 9.14502H24.5743C23.9165 9.14502 23.3319 9.72563 23.3319 10.3788C23.3319 11.032 23.9165 11.6126 24.5743 11.6126H30.2016C31.2978 11.6126 32.2478 12.4835 32.2478 13.6448H24.5012C23.8434 13.6448 23.2588 14.2254 23.2588 14.8786C23.2588 15.5318 23.8434 16.1124 24.5012 16.1124H32.1748V17.9268H24.5012C23.8434 17.9268 23.2588 18.5074 23.2588 19.1606C23.2588 19.8138 23.8434 20.3944 24.5012 20.3944H32.1748V22.2088H24.5012C23.8434 22.2088 23.2588 22.7894 23.2588 23.4426C23.2588 24.0958 23.8434 24.6764 24.5012 24.6764H32.1748V26.4909H24.5012C23.8434 26.4909 23.2588 27.0715 23.2588 27.7247C23.2588 28.3779 23.8434 28.9585 24.5012 28.9585H32.1748V30.7729H24.5012V30.6277Z" fill="url(#paint1_linear_7_863)"/>
<defs>
<linearGradient id="paint0_linear_7_863" x1="0" y1="30.1197" x2="26.0441" y2="30.1197" gradientUnits="userSpaceOnUse">
<stop stop-color="#FF5B3A"/>
<stop offset="1" stop-color="#FF3293"/>
</linearGradient>
<linearGradient id="paint1_linear_7_863" x1="23.2588" y1="29.2851" x2="34.6595" y2="29.2851" gradientUnits="userSpaceOnUse">
<stop stop-color="#FF5B3A"/>
<stop offset="1" stop-color="#FF3293"/>
</linearGradient>
</defs>
</svg>
